# xmcd
#
# Track frame offsets: 
#        150
#        15517
#        38503
#        57186
#        77779
#        97740
#        118054
#        143377
#        161788
#        182768
#        208982
#        232687
#        254151
#
# Disc length: 3684 seconds
#
# Revision: 1
# Processed by: cddbd v1.5.2PL0 Copyright (c) Steve Scherf et al.
# Submitted via: ExactAudioCopyFreeDBPlugin 1.0
#
DISCID=a20e620d
DTITLE=群星 - DTS51测试王
DYEAR=2010
DGENRE=Acapella
TTITLE0=月圆花好
TTITLE1=相逢是首歌
TTITLE2=家乡
TTITLE3=真的好想你
TTITLE4=乡间的小路
TTITLE5=白月光
TTITLE6=黄昏
TTITLE7=爱我别走
TTITLE8=一剪梅
TTITLE9=亲爱的你怎么不在我身边
TTITLE10=天涯
TTITLE11=天堂
TTITLE12=东风破
EXTD=
EXTT0=
EXTT1=
EXTT2=
EXTT3=
EXTT4=
EXTT5=
EXTT6=
EXTT7=
EXTT8=
EXTT9=
EXTT10=
EXTT11=
EXTT12=
PLAYORDER=
